<svg xmlns="http://www.w3.org/2000/svg" xmlns:xlink="http://www.w3.org/1999/xlink" width="634" height="630" viewBox="0 0 634 630">
    <defs>
        <filter id="g9lbsqosza">
            <feColorMatrix in="SourceGraphic" values="0 0 0 0 1.000000 0 0 0 0 1.000000 0 0 0 0 1.000000 0 0 0 0.460000 0"/>
        </filter>
        <path id="vrag5vldob" d="M0.424 0.805L475.424 0.805 475.424 467.805 0.424 467.805z"/>
    </defs>
    <g fill="none" fill-rule="evenodd" filter="url(#g9lbsqosza)" transform="translate(-249 -80)">
        <g transform="scale(-1 1) rotate(26 -512.684 -1426.753)">
            <mask id="k74ghb756c" fill="#fff">
                <use xlink:href="#vrag5vldob"/>
            </mask>
            <path fill="#020203" stroke="#979797" d="M475.424 231.862c-.697 23.421-3.913 46.758-10.825 69.163-7.315 22.235-17.412 43.515-30.484 62.94-13.452 19.146-29.423 36.421-47.446 51.325-18.38 14.487-38.737 26.302-60.279 35.359-21.735 8.695-44.688 13.856-67.88 16.397-23.285 1.71-46.702.578-69.592-3.874-22.736-5.037-44.843-12.77-65.339-23.737-20.279-11.314-38.953-25.27-55.49-41.475-16.07-16.651-29.817-35.374-40.867-55.6-10.709-20.44-18.117-42.39-22.836-64.857-4.122-22.628-4.913-45.688-2.906-68.524 2.852-22.736 8.284-45.14 17.18-66.274 9.267-20.934 21.216-40.628 35.745-58.327 14.948-17.344 32.158-32.625 51.127-45.418 19.248-12.407 40.24-21.873 62.053-28.65 21.999-6.362 44.812-9.135 67.624-9.505-22.812.693-45.524 3.782-67.337 10.429-21.635 7.054-42.348 16.759-61.263 29.328-18.628 12.955-35.443 28.32-49.964 45.65-14.096 17.69-25.587 37.261-34.405 57.971-8.454 20.903-13.452 42.97-15.94 65.258-1.643 22.405-.542 44.933 3.79 66.937 4.92 21.85 12.436 43.093 23.107 62.802 11.026 19.493 24.61 37.438 40.371 53.343 16.226 15.434 34.444 28.643 54.126 39.28 19.891 10.281 41.247 17.383 63.107 21.927 22.006 3.95 44.455 4.706 66.679 2.772 22.123-2.757 43.912-7.963 64.462-16.528 20.357-8.91 39.512-20.394 56.737-34.35 16.862-14.387 31.717-30.931 44.169-49.154 12.057-18.507 21.255-38.67 27.85-59.628 6.175-21.134 8.856-43.053 9.228-64.98h15.498z" mask="url(#k74ghb756c)"/>
        </g>
    </g>
</svg>
